<svg fill="none" height="120" width="120" xmlns="http://www.w3.org/2000/svg" xmlns:xlink="http://www.w3.org/1999/xlink"><clipPath id="a"><path d="m104.981 113.527h17.988v50.018h-17.988z"/></clipPath><linearGradient id="b"><stop offset="0" stop-color="#00ffa3"/><stop offset="1" stop-color="#dc1fff"/></linearGradient><linearGradient id="c" gradientUnits="userSpaceOnUse" x1="72.64" x2="33.39" xlink:href="#b" y1="16.655" y2="92.428"/><linearGradient id="d" gradientUnits="userSpaceOnUse" x1="72.64" x2="33.391" xlink:href="#b" y1="16.655" y2="92.428"/><clipPath id="e"><path d="m0 0h120v120h-120z"/></clipPath><clipPath id="f"><path d="m0 0h72v56h-72z" transform="translate(24 32)"/></clipPath><g clip-path="url(#e)"><path d="m60 120c33.137 0 60-26.863 60-60s-26.863-60-60-60-60 26.863-60 60 26.863 60 60 60z" fill="#000"/><g clip-path="url(#f)"><path d="m35.692 74.703a2.357 2.357 0 0 1 1.66-.681h57.418c1.046 0 1.57 1.254.83 1.988l-11.346 11.248a2.356 2.356 0 0 1 -1.66.681h-57.417c-1.046 0-1.57-1.254-.83-1.988l11.346-11.248z" fill="url(#c)"/><path d="m35.692 32.682a2.357 2.357 0 0 1 1.66-.682h57.418c1.046 0 1.57 1.255.83 1.989l-11.347 11.247a2.357 2.357 0 0 1 -1.66.682h-57.417c-1.046 0-1.57-1.255-.83-1.989z" fill="url(#c)"/><path d="m84.254 53.559a2.356 2.356 0 0 0 -1.66-.682h-57.417c-1.046 0-1.57 1.255-.83 1.988l11.346 11.248c.44.437 1.037.682 1.66.682h57.417c1.046 0 1.57-1.255.83-1.989l-11.346-11.246z" fill="url(#d)"/></g></g><path d="m66.34 31.118h32.567v58.584h-32.567z" fill="#000" stroke-linecap="round" stroke-linejoin="round" stroke-width="13.1996"/><g clip-path="url(#a)" transform="matrix(1.21454 0 0 1.16705 -56.994 -102.066)"><path d="m115.604 135.211s1.884-2.897 4.683-1.12c0 0-1.023 1.614-1.13 2.314-.108.7 2.098 14.102-3.123 21.852-5.22 7.751-22.175 3.714-22.175 3.714s-7.835-2.003-9.515-13.381l2.767 4.258s-.851-6.387.213-9.368c1.065-2.98 5.04-5.89 5.04-5.89s11.283-7.948 4.754-14.62c0 0 6.054-1.26 6.79 8.344 0 0 3.719-5.477 1.716-16.43 0 0 11.272 5.301 9.98 20.327z" fill="#01cce7"/><path d="m100.099 137.046s2.883.721 3.05 4.548c0 0 4.714-.093 7.21-9.299 0 0 3.61 7.585 4.442 15.167.83 7.56-1.103 15.118-12.13 15.156 0 0-7.952-.109-10.337-4.849-3.19-6.344 5.38-14.863 5.38-14.863s1.608-1.127 2.385-5.86z" fill="#00ffa3"/><path d="m99.452 152.469s.462 2.123 1.932 2.123 2.695-1.388 1.579-5.852c0 0 5.008 1.143 5.144 6.86.136 5.715-3.239 6.341-3.239 6.341s-3.92 1.035-6.233-1.116c-2.313-2.15.817-8.356.817-8.356z" fill="#d625fd"/></g></svg>