<svg fill="none" height="512" viewBox="0 0 512 512" width="512" xmlns="http://www.w3.org/2000/svg"><g stroke-width="2"><g stroke="#dac695"><path d="m419.79 271.511 23.605-60.351c.146-.374.408-.497.788-.369 1.693.579 3.57.855 5.33.805 9.326-.268 16.868-6.997 17.605-16.382.838-10.584-7.097-18.98-17.564-19.265-6.779-.176-13.156 3.704-16.156 9.77-3.963 8.028-1.567 17.397 5.707 22.676.296.212.318.45.067.712-17.463 18.028-35.038 34.416-52.725 49.164-7.33 6.111-14.936 11.832-22.818 17.162-5.849 3.955-11.76 7.228-17.732 9.821-5.396 2.346-11.01 3.594-16.667 2.044-10.592-2.916-19.357-11.22-26.086-19.876-7.162-9.224-13.793-20.399-19.893-33.528-11.33-24.401-19.885-50.948-26.648-77.344-.072-.274.034-.431.319-.47 7.089-1.022 12.005-4.578 14.748-10.667 4.45-9.871-1.114-21.15-11.254-24.251-5.849-1.785-12.611-.293-17.12 3.905-11.438 10.651-5.053 29.446 10.517 30.971.184.017.254.115.209.294-5.53 22.402-12.519 43.965-20.966 64.691-5.474 13.43-11.734 25.715-18.779 36.854-4.742 7.503-10.005 13.966-15.787 19.391-5.874 5.522-14.505 10.927-22.65 10.726-6.955-.176-14.899-4.098-20.991-7.676-7.056-4.151-14.02-8.902-20.891-14.254-22.24-17.321-42.4935-36.477-62.5294-56.932-.2626-.268-.243-.514.0587-.737 10.1226-7.366 10.3824-22.441-.2766-29.497-10.5835-7.013-24.8626-1.114-27.3262 11.162-.9497 4.737-.3156 8.894 1.9022 12.469 4.7709 7.704 11.7372 10.483 20.899 8.338.2681-.062.4525.036.5531.293l24.6698 63.057"/><path d="m171.759 198.071c-3.218 23.84-9.235 49.918-18.737 70.448-.145.319-.073.576.218.771 7.081 4.71 17.899 11.397 25.549 9.729 9.771-2.137 19.223-12.335 24.645-20.48.151-.235.148-.466-.008-.695-12.478-18.419-21.788-38.623-29.639-59.907-.129-.346-.014-.561.343-.645 6.629-1.559 10.668-7.743 9.419-14.556-1.709-9.393-13.148-13.256-20.354-6.988-8.548 7.432-3.428 21.854 8.111 21.812.347 0 .497.17.453.511z"/><path d="m336.889 197.87c-6.273 16.961-13.374 32.51-21.301 46.65-2.335 4.162-5.117 8.561-8.346 13.198-.201.296-.201.589 0 .88 5.799 8.354 13.6 16.952 22.851 20.002 4.542 1.492 9.101.369 13.45-1.592 4.581-2.061 9.282-4.682 14.103-7.86.076-.051.13-.128.153-.218.024-.089.014-.184-.027-.268-2.403-4.872-4.403-9.718-6-14.539-5.665-17.123-9.743-34.388-12.235-51.795-.201-1.416-.553-2.866-.653-4.299-.023-.29.111-.441.402-.452 4.072-.129 7.265-1.615 9.578-4.458 7.852-9.679-1.483-23.564-13.466-19.802-7.441 2.33-10.743 11.011-7.031 17.866 1.726 3.184 4.461 5.218 8.204 6.1.329.079.436.274.318.587z"/></g><path d="m419.79 271.511-42.402 108.492c-.106.262-.301.38-.586.352-80.758-8.19-161.748-8.304-242.97-.344-.162.017-.325-.02-.464-.105-.139-.084-.247-.212-.307-.364l-41.1524-105.325" stroke="#d5c190"/></g><g fill="#b78e2d"><path d="m419.79 271.511-42.402 108.492c-.106.262-.301.38-.586.352-80.758-8.19-161.748-8.304-242.97-.344-.162.017-.325-.02-.464-.105-.139-.084-.247-.212-.307-.364l-41.1524-105.325-24.6698-63.057c-.1006-.257-.285-.355-.5531-.293-9.1618 2.145-16.1281-.634-20.899-8.338-2.2178-3.575-2.8519-7.732-1.9022-12.469 2.4636-12.276 16.7427-18.175 27.3262-11.162 10.659 7.056 10.3992 22.131.2766 29.497-.3017.223-.3213.469-.0587.737 20.0359 20.455 40.2894 39.611 62.5294 56.932 6.871 5.352 13.835 10.103 20.891 14.254 6.092 3.578 14.036 7.5 20.991 7.676 8.145.201 16.776-5.204 22.65-10.726 5.782-5.425 11.045-11.888 15.787-19.391 7.045-11.139 13.305-23.424 18.779-36.854 8.447-20.726 15.436-42.289 20.966-64.691.045-.179-.025-.277-.209-.294-15.57-1.525-21.955-20.32-10.517-30.971 4.509-4.198 11.271-5.69 17.12-3.905 10.14 3.101 15.704 14.38 11.254 24.251-2.743 6.089-7.659 9.645-14.748 10.667-.285.039-.391.196-.319.47 6.763 26.396 15.318 52.943 26.648 77.344 6.1 13.129 12.731 24.304 19.893 33.528 6.729 8.656 15.494 16.96 26.086 19.876 5.657 1.55 11.271.302 16.667-2.044 5.972-2.593 11.883-5.866 17.732-9.821 7.882-5.33 15.488-11.051 22.818-17.162 17.687-14.748 35.262-31.136 52.725-49.164.251-.262.229-.5-.067-.712-7.274-5.279-9.67-14.648-5.707-22.676 3-6.066 9.377-9.946 16.156-9.77 10.467.285 18.402 8.681 17.564 19.265-.737 9.385-8.279 16.114-17.605 16.382-1.76.05-3.637-.226-5.33-.805-.38-.128-.642-.005-.788.369z"/><path d="m171.306 197.56c-11.539.042-16.659-14.38-8.111-21.812 7.206-6.268 18.645-2.405 20.354 6.988 1.249 6.813-2.79 12.997-9.419 14.556-.357.084-.472.299-.343.645 7.851 21.284 17.161 41.488 29.639 59.907.156.229.159.46.008.695-5.422 8.145-14.874 18.343-24.645 20.48-7.65 1.668-18.468-5.019-25.549-9.729-.291-.195-.363-.452-.218-.771 9.502-20.53 15.519-46.608 18.737-70.448.045-.341-.106-.511-.453-.511z"/><path d="m336.571 197.283c-3.743-.882-6.478-2.916-8.204-6.1-3.712-6.855-.41-15.536 7.031-17.866 11.983-3.762 21.318 10.123 13.466 19.802-2.313 2.843-5.506 4.329-9.578 4.458-.291.011-.425.162-.402.452.1 1.433.452 2.883.653 4.299 2.492 17.407 6.57 34.672 12.235 51.795 1.597 4.821 3.597 9.667 6 14.539.041.084.051.179.027.268-.023.09-.077.167-.153.218-4.821 3.178-9.522 5.799-14.103 7.86-4.349 1.961-8.908 3.084-13.45 1.592-9.251-3.05-17.052-11.648-22.851-20.002-.201-.291-.201-.584 0-.88 3.229-4.637 6.011-9.036 8.346-13.198 7.927-14.14 15.028-29.689 21.301-46.65.118-.313.011-.508-.318-.587z"/></g></svg>