<svg fill="none" height="500" viewBox="0 0 500 500" width="500" xmlns="http://www.w3.org/2000/svg" xmlns:xlink="http://www.w3.org/1999/xlink"><linearGradient id="a" gradientUnits="userSpaceOnUse" x1="463.5" x2="-54.8799" y1="663" y2="-32.6252"><stop offset="0" stop-color="#de82ff"/><stop offset="1" stop-color="#7f6aff"/></linearGradient><rect fill="url(#a)" height="500" rx="250" width="500"/><path d="m141.423 163.173c3.069-5.697 7.497-10.554 12.896-14.142l90.593-63.031-92.824 152.931s-8.11-13.656-11.274-20.566c-3.941-8.688-5.929-18.129-5.824-27.663s2.301-18.93 6.433-27.529zm-37.389 105.496c1.023 14.625 5.17 28.863 12.164 41.761 6.993 12.899 16.672 24.159 28.388 33.028l100.204 69.617s-62.694-90.021-115.573-179.598c-5.354-9.464-8.953-19.811-10.625-30.546-.74-4.861-.74-9.806 0-14.667-1.379 2.546-4.055 7.758-4.055 7.758-5.362 10.895-9.014 22.546-10.828 34.546-1.044 12.684-.935 25.436.325 38.101zm255.478 12.121c-3.245-6.909-11.274-20.566-11.274-20.566l-92.661 152.851 90.593-62.991c5.398-3.588 9.827-8.444 12.896-14.141 4.132-8.6 6.327-17.996 6.433-27.529.105-9.534-1.883-18.976-5.825-27.664zm36.78-50.344c-1.023-14.624-5.17-28.863-12.163-41.761-6.994-12.898-16.673-24.159-28.389-33.027l-100.042-69.658s62.653 90.021 115.574 179.598c5.339 9.467 8.924 19.814 10.584 30.546.74 4.861.74 9.806 0 14.667 1.379-2.546 4.055-7.758 4.055-7.758 5.362-10.895 9.014-22.546 10.827-34.546 1.058-12.683.963-25.435-.283-38.101z" fill="#fff"/></svg>