<svg fill="none" height="72" viewBox="0 0 72 72" width="72" xmlns="http://www.w3.org/2000/svg" xmlns:xlink="http://www.w3.org/1999/xlink"><clipPath id="a"><path d="m0 0h72v72h-72z"/></clipPath><g clip-path="url(#a)"><path d="m72 36c0-19.8823-16.1177-36-36-36s-36 16.1177-36 36 16.1177 36 36 36 36-16.1177 36-36z" fill="#fff"/><path d="m58.0331 46.609v.1344c-.1369 5.3279-3.8618 9.888-9.0552 11.0854h-.0205c-1.0282.111-2.3368.1869-3.8266.2307-6.2861.1957-15.4085-.1168-16.9041-.2103-2.0769-.1314-7.7379.6777-12.0552-3.2336-2.8363-2.5705-2.3368-11.173-2.3368-11.173s.257-7.0806 4.6999-16.168c4.443-9.0874 9.1313-11.8946 13.5274-13.5245 4.3962-1.63 5.5851.8763 5.5851.8763s2.1207 3.4527 2.3368 4.1158c.2162.663.4236 1.1888.2921 2.6464-.0759.8764-.9201 1.3408-1.5773 1.5657-1.1451.3973-.6339-.1898-.8588.9494-.7186 3.698-5.7516 2.439-8.1322 1.9016-2.1791.777-2.6465 5.29-2.6465 5.29s.1285 5.55.2921 7.3523c.0707 1.205-.1289 2.4107-.5842 3.5286 0 0 3.4205-1.2064 4.7029-.8763 1.2122-2.1674 8.325-7.1858 15.7737-6.3007h.035c1.0304.1217 2.0437.3598 3.0204.7098.7665.2708 1.5082.607 2.2171 1.0049 2.8063 1.7388 4.7461 4.5837 5.3397 7.8313.0013.0107.0013.0215 0 .0321.109.7391.1675 1.4847.1752 2.2317z" fill="#815bf4"/><path d="m46.2216 58.0369c6.3723 0 11.538-5.1657 11.538-11.538 0-6.3722-5.1657-11.538-11.538-11.538s-11.538 5.1658-11.538 11.538c0 6.3723 5.1657 11.538 11.538 11.538z" fill="#fff"/><g fill="#815bf4"><path d="m57.4596 46.4989c0 6.2066-5.0314 11.238-11.238 11.238v.6c6.5379 0 11.838-5.3 11.838-11.838zm-11.238 11.238c-6.2066 0-11.238-5.0314-11.238-11.238h-.6c0 6.538 5.3 11.838 11.838 11.838zm-11.238-11.238c0-6.2065 5.0314-11.238 11.238-11.238v-.6c-6.538 0-11.838 5.3001-11.838 11.838zm11.238-11.238c6.2066 0 11.238 5.0315 11.238 11.238h.6c0-6.5379-5.3001-11.838-11.838-11.838z"/><path d="m51.3839 49.5141c0 1.0648-.3599 1.9809-1.0797 2.7497-.7205.768-1.6552 1.2432-2.8057 1.4239v1.825c.003.0902-.0324.1774-.0974.2399-.0671.0636-.1569.0975-.2492.0943h-1.466c-.0912.001-.1791-.0346-.2438-.0989-.0664-.0601-.1041-.1457-.1036-.2353v-1.825c-.4708-.0613-.9343-.1699-1.3834-.3241-.379-.1247-.7473-.2797-1.1014-.4634-.2782-.1495-.5464-.3168-.8031-.5009-.1749-.1218-.3434-.2525-.5047-.3918-.0664-.0591-.1299-.1215-.1901-.1869-.1231-.1465-.1301-.289-.0218-.4284l1.1178-1.4084c.0506-.0701.134-.1114.2492-.1246.1091-.014.1955.0171.261.0935l.0218.021c.8179.6886 1.6965 1.1232 2.6375 1.3039.2672.0554.5351.0834.8023.0834.5865 0 1.1022-.1496 1.547-.4487.4447-.2991.6675-.7228.6675-1.2728 0-.1947-.0545-.3785-.1636-.553-.0992-.1627-.2214-.3101-.363-.4378-.1339-.1184-.345-.2492-.6348-.391-.2358-.1178-.4748-.2292-.7166-.3342-.2869-.1187-.5762-.2317-.8677-.3388-.282-.1114-.5048-.1986-.6676-.2609-.2242-.088-.4468-.1802-.6675-.2766-.2308-.0971-.457-.205-.6777-.3232-.2085-.1171-.4132-.2407-.6138-.3708-.2072-.1288-.4015-.2772-.5803-.4432-.1663-.1619-.3238-.3325-.472-.511-.1566-.1825-.2864-.3862-.3856-.6052-.0967-.2238-.1731-.4558-.2282-.6933-.0625-.2668-.0934-.54-.092-.814 0-.9596.3545-1.8016 1.0633-2.5245.7088-.7236 1.6319-1.1894 2.7676-1.3982v-1.8765c0-.0903.0342-.169.1036-.2352.0646-.0646.1524-.1005.2437-.0997h1.4652c.1013 0 .1846.0311.2493.0935.0654.0623.0981.1433.0981.2406v1.836c.4129.0413.8125.1215 1.1996.2399s.701.2345.9441.349c.2414.1153.472.2453.6885.3918.2181.1456.3584.2469.4238.3022.0646.0553.1192.1044.1628.1464.1231.1247.141.2571.0545.3958l-.8794 1.5236c-.0467.0966-.1421.1604-.2493.1666-.1039.0205-.2115-.0063-.2936-.0732-.0506-.0439-.1031-.0855-.1574-.1246-.137-.0981-.2781-.1904-.4229-.2765-.2044-.1247-.4164-.2363-.6349-.3342-.2612-.1133-.5317-.204-.8085-.2711-.303-.0784-.6147-.1187-.9277-.1199-.6878 0-1.2487.1495-1.6825.4486-.4339.2992-.6512.6855-.6512 1.1576 0 .1814.0311.3481.0919.5008.0623.1535.1682.2976.3201.4331s.2952.2508.4284.3443c.1348.0935.3373.2017.6084.3232.2711.1216.4907.2158.6566.282.1667.0662.4199.1613.7595.2867.384.1394.6769.2492.8794.3287.2026.0802.4775.2017.8249.3653s.6201.3116.8195.4432c.1986.1324.4229.3061.673.5219.2492.215.4408.4362.5748.6621s.2477.4923.342.7984c.0935.3054.141.6318.141.9799z"/></g></g></svg>