<svg fill="none" height="32" viewBox="0 0 32 32" width="32" xmlns="http://www.w3.org/2000/svg" xmlns:xlink="http://www.w3.org/1999/xlink"><linearGradient id="a"><stop offset="0" stop-color="#d55bff"/><stop offset="1" stop-color="#609fff" stop-opacity=".2"/></linearGradient><radialGradient id="b" cx="0" cy="0" gradientTransform="matrix(-10.91368782 14.55523397 -17.75760306 -13.31486232 15.9939 16.2004)" gradientUnits="userSpaceOnUse" r="1" xlink:href="#a"/><radialGradient id="c" cx="0" cy="0" gradientTransform="matrix(11.14110219 42.97824198 -49.8441049 12.92091628 15.9987 15.9998)" gradientUnits="userSpaceOnUse" r="1" xlink:href="#a"/><circle cx="16" cy="16" fill="#000" r="16"/><g clip-rule="evenodd" fill-rule="evenodd"><path d="m18.5255 11.4653c-.4234 0-.7667.3433-.7667.7668v.5387h1.2972v-1.3055zm-2.7038 3.2553h-1.2973v1.3055h1.2973zm3.2343 0h-1.2972v1.3055h1.2972zm-7.7669.0001h1.2972v1.3054h-1.2972zm0-2.4883c0-.4234.3432-.7667.7667-.7667h.5305v1.3055h-1.2972zm7.7669 5.7437h-1.2972v1.3055h1.2972zm-7.7669-.0004h1.2972v1.3055h-1.2972zm4.5326-1.6016h-1.2973v1.3055h1.2973zm1.9371.0002h1.2972v1.3055h-1.2972zm-5.1725-.0001h-1.2972v1.3055h1.2972zm5.1725-3.2551h1.2972v1.3055h-1.2972zm-5.1725-.0001h-1.2972v1.3055h1.2972zm5.1725 6.5109h1.2972v1.3055h-.5305c-.4234 0-.7667-.3433-.7667-.7667zm-5.1725.0001h-1.2972v.5387c0 .4235.3432.7668.7667.7668h.5305zm3.5807-4.9094h1.2972v1.3055h-1.2972zm4.5317 0h-1.2972v1.3054h1.2972zm-7.7661 0h1.2973v1.3055h-1.2973zm6.9994-3.2553h-.5305v1.3055h1.2972v-.5387c0-.4235-.3433-.7668-.7667-.7668zm-6.9994 0h.5305c.4235 0 .7668.3433.7668.7668v.5387h-1.2973zm7.7661 6.5109h-1.2972v1.3054h1.2972zm-7.7661-.0006h1.2973v1.3055h-1.2973zm4.5316-1.6013h-1.2972v1.3055h1.2972zm1.9373 0h1.2972v1.3055h-1.2972zm-5.1716-.0002h-1.2973v1.3055h1.2973zm5.1716-3.255h1.2972v1.3055h-1.2972zm-5.1716-.0001h-1.2973v1.3055h1.2973zm5.1716 6.5109h1.2972v.5388c0 .4234-.3433.7667-.7667.7667h-.5305zm-5.1716.0001h-1.2973v1.3055h.5305c.4235 0 .7668-.3433.7668-.7668z" fill="url(#b)"/><path d="m18.1911 5.52128c-.2213.24727-.5538.35805-.8819.31542-3.2029-.41623-6.55.70228-8.87758 3.29539-2.33542 2.60181-3.09943 6.08081-2.351 9.25421.07637.3238.00164.6681-.21957.9153-.47368.5294-1.32867.3679-1.50218-.3231-.94999-3.7833-.0646-7.959 2.72745-11.0695 2.78289-3.10033 6.80368-4.41131 10.62848-3.85743.701.10151.95.94031.4763 1.46971zm-4.983 20.87372c.2326-.2599.5876-.367.9296-.3037 3.362.6221 6.9578-.4717 9.4163-3.2106 2.4663-2.7476 3.1801-6.4734 2.211-9.7845-.0983-.3356-.0295-.702.203-.9619.4577-.5116 1.2831-.3767 1.4858.2811 1.2144 3.9408.3907 8.4072-2.5545 11.6884-2.9361 3.271-7.2501 4.5502-11.2581 3.749-.6713-.1342-.8908-.9462-.4331-1.4578z" fill="url(#c)"/></g></svg>