<svg viewBox="0 0 197.84 199.67" xmlns="http://www.w3.org/2000/svg"><path d="m72.13 2.72c.55-.93 1.15-1.84 1.78-2.72h26.3q-19.63 35.32-39.37 70.56c-1.8 2.33 0 6.18 3 6 22.46.07 44.93 0 67.39-.06 4.47 7.52 8.71 15.18 13.07 22.76q-47.65 0-95.31 0c-2.2-.1-5-.07-6 2.35-5.39 10-10.67 20-16 30q-13.33 0-26.66 0 35.86-64.44 71.8-128.89z"/><path d="m70.41 69q18.15-32.56 36.36-65.11c4.29 7 8.6 14.09 12.84 21.16 1 1.16-.2 2.48-.67 3.56q-11.25 20.16-22.42 40.39c-8.7 0-17.41 0-26.11 0z"/><path d="m158 44.61h23c1.33.07 3.14-.25 3.78 1.3 4.42 7.14 8.72 14.35 13.09 21.52-9.06-.07-18.13.16-27.19-.11-4.12-7.65-8.51-15.13-12.68-22.71z"/><path d="m151.26 48.19c4.33 7.73 8.78 15.39 13 23.19-4.5 8.07-8.79 16.24-13.23 24.34q-6.6-11.49-13.15-23 6.66-12.28 13.38-24.53z"/><path d="m170.78 75.08c8.91-.13 17.82 0 26.73 0q-34.71 62.29-69.51 124.59h-26.44q17.85-31.9 35.57-63.88a3.76 3.76 0 0 0 -3.28-5.72c-22.42-.06-44.84 0-67.26.06-4.54-7.7-9-15.47-13.43-23.19 32.62-.06 65.25 0 97.87 0 2 .2 3.43-1.29 4.18-2.94 5.17-9.68 10.42-19.27 15.57-28.92z"/><path d="m46.65 110.89q6.6 11.33 13.13 22.72-6.6 12.39-13.23 24.85-6.48-11.53-13-23.05c4.37-8.18 8.75-16.34 13.1-24.52z"/><path d="m101.3 137.7q13.07-.07 26.12 0-17.22 31-34.52 62h-3.7q-5.86-9.46-11.56-19.06c7.66-14.45 15.84-28.64 23.66-42.94z"/><path d="m0 139.26h27q6.45 11.38 12.83 22.81c-8.29 0-16.59.09-24.89-.07-1.54.21-2-1.61-2.74-2.54-4.02-6.75-8.14-13.46-12.2-20.2z"/></svg>