<svg viewBox="0 0 500 500" xmlns="http://www.w3.org/2000/svg"><path d="m296.672 162.0064c0-65.5782-31.6121-122.0764-55.8256-140.5728 0 0-1.6815-1.0089-1.6815 1.6815-2.0178 126.7849-66.2509 161.4233-101.8985 207.4962-81.7206 106.943-5.7171 223.975 71.6316 245.4981 43.3825 12.1067-10.089-21.5231-16.8149-92.1459-8.0712-85.7561 104.5888-150.9981 104.5888-221.9571" fill="#282e5b"/><path d="m339.0456 205.3889a1.5011 1.5011 0 0 0 -1.6815 0l-.3363.3363c-1.3452 15.8061-18.8327 50.1085-40.6921 81.3843-74.322 106.27-31.9484 157.3878-8.0712 184.9643 13.7882 16.1423 0 0 34.6388-16.4786 2.69-1.3452 67.26-35.6477 74.322-113.3327 7.0622-75.6672-41.0284-123.0853-58.18-136.8735" fill="#059bdc"/></svg>