<svg height="85mm" viewBox="0 0 85 85" width="85mm" xmlns="http://www.w3.org/2000/svg" xmlns:xlink="http://www.w3.org/1999/xlink"><linearGradient id="a" gradientUnits="userSpaceOnUse" x1="26.89" x2="26.89" y1="67.78" y2="14.29"><stop offset=".7" stop-color="#cfe4f3"/><stop offset="1" stop-color="#6bc3f9"/></linearGradient><linearGradient id="b" gradientUnits="userSpaceOnUse" x1="27.4" x2="27.4" y1="67.78"><stop offset="0" stop-color="#b18cf9"/><stop offset="1" stop-color="#4f3dd5"/></linearGradient><linearGradient id="c" gradientUnits="userSpaceOnUse" x1="26.9" x2="26.9" y1="67.75" y2="14.11"><stop offset="0" stop-color="#b1d6f9"/><stop offset="1" stop-color="#9193ee"/></linearGradient><linearGradient id="d" gradientUnits="userSpaceOnUse" x1="26.89" x2="26.89" y1="67.78" y2="14.29"><stop offset="0" stop-color="#cfe4f3"/><stop offset="1" stop-color="#6bc3f9"/></linearGradient><linearGradient id="e" x1="16.86" x2="16.86" xlink:href="#c" y1="68.33" y2="14.4"/><linearGradient id="f" x1="26.89" x2="26.89" xlink:href="#c" y1="67.78" y2="15.71"/><linearGradient id="g" gradientUnits="userSpaceOnUse" x1="-3.01" x2="57.04" y1="63.92" y2="3.88"><stop offset="0" stop-color="#a684f8"/><stop offset=".5" stop-color="#8272fa"/><stop offset="1" stop-color="#90aefb"/></linearGradient><linearGradient id="h" gradientUnits="userSpaceOnUse" x1="26.9" x2="26.9" xlink:href="#c" y1="67.75" y2="14.11"/><clipPath id="i"><path d="m14.14 28.22 7.86-18.5a2.55 2.55 0 0 1 1-1.1l12.54-7.7a.59.59 0 0 1 .85.73l-3.18 8.19 6.79 15.16 2.34-6.08a2.69 2.69 0 0 1 1-1.16l4.66-2.85a.59.59 0 0 1 .86.67l-1 6.57 5.09 29.74a4.51 4.51 0 0 1 -2.54 4.85l-21.75 10.14a4.48 4.48 0 0 1 -3.82 0l-21.52-10.15a4.51 4.51 0 0 1 -2.53-4.8l4.05-31.43a2.27 2.27 0 0 1 1-1.4l6.6-3.93a.58.58 0 0 1 .85.71l-1.51 6.46z"/></clipPath><g clip-path="url(#i)" transform="matrix(1.27556399 0 0 1.27556399 8.253515 -.992847)"><path d="m26.75 67.78-26.5-12.5 4.64-35.58 9.05-5.41-2.12 8.05 2.54 6.42 39.16 26.52z" fill="url(#a)"/><path d="m33.21 9.84 3.85-9.84-14.22 8.54a3 3 0 0 0 -1 1.32l-7.4 17.72-13.17 28.78 25.48 11.42 26.78-12.5z" fill="url(#b)"/><path d="m53.53 55.26-5.68-33.13 1.3-8.02-6.51 4.09-8.98 23.63-33.4 13.43 26.5 12.49z" fill="url(#h)"/><path d="m26.75 67.78-26.5-12.5 4.59-35.76 9.1-5.23-2.12 8.05 2.32 5.88 39.38 27.06z" fill="url(#d)"/><path d="m26.5 68.33.25-.55 6.97-26.11-33.72 13.69z" fill="url(#e)"/><path d="m53.52 55.28-19.8-13.61-33.47 13.61 26.5 12.5z" fill="url(#f)" opacity=".7"/><path d="m.48.83h52.63v66.58h-52.63z" fill="url(#g)"/><path d="m28.34 66.58a4 4 0 0 1 -3.29 0l-23.7-11.13a4.49 4.49 0 0 0 2 1.81l21.49 10.14a4.48 4.48 0 0 0 3.82 0l21.74-10.13a4.5 4.5 0 0 0 1.94-1.74z" fill="#311b98" opacity=".2"/><g fill="#fff"><path d="m43.56 17.91 5.07-3.09a.58.58 0 0 0 -.82-.26l-4.71 2.87a2.69 2.69 0 0 0 -1 1.16l-2.07 6.29 2.43-5.72a2.46 2.46 0 0 1 1.1-1.25z" opacity=".3"/><path d="m23.3 8.76 13.06-8c0-.43-.75-.56-1.17-.31l-13.13 8.08a.79.79 0 0 0 -.19.22l-7.59 19.06 7.77-17.56a2.7 2.7 0 0 1 1.25-1.49z" opacity=".3"/><path d="m6 19.4 7-4.4a.58.58 0 0 0 -.82-.25l-6.6 3.94a2.27 2.27 0 0 0 -1 1.4l-3.75 31.55 4.23-30.84a1.92 1.92 0 0 1 .94-1.4z" opacity=".3"/></g></g></svg>