<svg fill="none" height="96" viewBox="0 0 96 96" width="96" xmlns="http://www.w3.org/2000/svg"><circle cx="48" cy="48" fill="#0ce466" r="48"/><g clip-rule="evenodd" fill="#000" fill-rule="evenodd"><path d="m48 53.1888c-5.4908 0-9.946-4.4508-9.946-9.946s4.4552-9.9459 9.946-9.9459c5.4907 0 9.9459 4.4507 9.9459 9.9459s-4.4552 9.946-9.9459 9.946zm-4.3244-9.946c0 2.3892 1.9371 4.3243 4.3244 4.3243 2.3872 0 4.3243-1.9351 4.3243-4.3243s-1.9371-4.3243-4.3243-4.3243c-2.3873 0-4.3244 1.9351-4.3244 4.3243z"/><path d="m16 43.256 19.027-19.0402h25.9459l19.027 19.0402-31.9999 31.9868zm46.7026-6.9322c-8.0844-8.1199-21.3209-8.1199-29.4053.0001l-6.9189 6.919 6.9189 6.9189c8.0844 8.1199 21.3209 8.1199 29.4053 0l6.9189-6.9189z"/></g></svg>