<svg fill="none" height="450" viewBox="0 0 450 450" width="450" xmlns="http://www.w3.org/2000/svg"><circle cx="225" cy="225" fill="#308d8a" r="225"/><path clip-rule="evenodd" d="m350.189 253.668.004-.025c5.319-2.916 10.829-9.625 14.592-14.206 1.018-1.239 1.908-2.322 2.632-3.133 6.919-8.946 11.932-19.216 14.73-30.174 17.127-60.646-24.849-106.026-86.227-98.264-44.443 7.858-75.964 37.784-107.506 67.731h-.001c-10.045 9.538-20.093 19.077-30.561 27.907-4.268-1.948-10.147-2.765-14.944-3.432-2.231-.31-4.227-.588-5.719-.931-23.245-1.921-49.6967 4.039-66.0312 21.62-25.9768 29.185-25.4018 74.268 20.1368 80.663 10.6864 1.911 21.6374 1.533 32.1344-1.087.298 1.403.874 2.748 1.449 4.091.358.836.715 1.671 1.006 2.52 1.814 4.369 3.174 8.949 4.535 13.528 1.982 6.668 3.964 13.337 7.344 19.359 1.12 1.462 2.613 2.155 4.149 2.261.957 1.057 2.295 1.77 3.967 1.838 34.457-15.04 70.641-25.76 107.729-31.917 20.785-3.938 41.603-5.872 62.55-7.819h.001.001.001c11.915-1.107 23.872-2.218 35.889-3.704 6.119.134 8.388-5.246 6.905-9.161.609-1.125.865-2.503.58-4.085-1.052-4.395-2.352-8.731-3.649-13.059v-.001-.001h-.001c-.117-.393-.235-.787-.353-1.18-.098-.328-.196-.657-.294-.985-.332-1.146-.669-2.292-1.005-3.439-1.45-4.936-2.903-9.886-4.044-14.915zm-214.802 42.723c7.325-2.529 15.834-6.085 13.107-13.261-.738-1.537-2.048-2.724-3.651-3.305s-3.37-.511-4.922.196c-20.393 10.87-49.1222 15.028-67.8129-1.148-12.5726-15.721-1.5045-39.52 11.0879-51.954 16.91-14.426 40.595-17.408 62.073-13.362-3.436 2.581-6.93 5.062-10.495 7.422-7.049 4.713-.139 15.127 6.929 10.811 19.745-12.418 36.522-28.572 53.31-44.736 10.568-10.176 21.141-20.356 32.461-29.611 25.62-21.7 58.903-41.816 93.73-36.668 17.364 3.564 36.035 11.424 44.252 28.174 13.82 25.363 7.959 59.141-9.484 81.356-3.512 4.551-7.585 8.64-12.123 12.17-1.713-.511-3.686-.685-5.549-.849-.711-.062-1.405-.123-2.064-.201 5.679-9.512 8.603-24.504 8.294-30.88.673-8.237-11.682-9.444-12.553-1.247-.21 5.001-.92 9.969-2.119 14.829-1.386 4.97-3.771 9.605-7.009 13.622-1.083.411-2.034 1.106-2.755 2.012-.224.282-.423.581-.596.893-4.844-.084-9.688-.06-14.528.072 3.697-8.382 5.742-18.288 4.829-22.459-.525-5.17-1.581-10.272-3.148-15.226-2.594-7.88-14.414-4.098-12.077 3.822 4.134 11.347 2.956 25.107-4.933 34.647-9.408.705-18.787 1.821-28.112 3.347-11.57 2.389-22.962 5.571-34.095 9.524-1.582.527-2.898 1.646-3.673 3.122-.775 1.477-.949 3.196-.485 4.797.515 1.592 1.63 2.921 3.109 3.705 1.479.783 3.204.96 4.811.493 2.451-.741 4.892-1.507 7.332-2.272 6.035-1.893 12.061-3.783 18.209-5.292 11.597-2.728 22.846-3.913 34.591-4.621.803.116 1.598.063 2.381-.137 2.82-.155 5.672-.286 8.566-.409 11.723-.964 23.431-.31 35.087.457.119 3 1.184 6.399 2.151 9.483.569 1.814 1.103 3.518 1.391 4.969 1.001 3.324 1.912 6.678 2.823 10.031v.001.001l.001.001v.001.001l.001.001v.003c.85 3.128 1.7 6.255 2.621 9.354-10.462 1.222-20.961 2.252-31.464 3.282-26.676 2.618-53.379 5.238-79.592 11.003-19.255 3.896-38.247 8.994-56.865 15.265l-.051.017c-10.606 3.393-21.322 6.821-31.06 12.244-1.497-4.065-2.823-8.207-4.148-12.349l-.001-.001c-2.297-7.179-4.595-14.358-7.782-21.14zm32.475-4.591c-5.682 2.212-14.023 5.46-10.042 12.574 3.755 4.899 8.8 2.241 13.705-.343 2.311-1.217 4.59-2.418 6.688-2.805 5.765-2.291 11.647-4.273 17.622-5.94 3.806-1.001 7.632-1.941 11.45-2.878l.003-.001.002-.001c1.464-.359 2.925-.718 4.384-1.08 7.861-2.455 4.138-14.453-3.782-12.038-13.127 2.849-25.985 6.824-38.43 11.88-.497.202-1.035.412-1.6.632z" fill="#fff" fill-rule="evenodd"/></svg>