<svg fill="none" height="32" width="32" xmlns="http://www.w3.org/2000/svg" xmlns:xlink="http://www.w3.org/1999/xlink"><linearGradient id="a" gradientUnits="userSpaceOnUse" x1="2.882" x2="28.944" y1="10.943" y2="26.56"><stop offset="0" stop-color="#e54033"/><stop offset=".49" stop-color="#feca1a"/><stop offset="1" stop-color="#afd803"/></linearGradient><linearGradient id="b"><stop offset=".15" stop-color="#6cbf00"/><stop offset="1" stop-color="#afd803"/></linearGradient><linearGradient id="c" gradientUnits="userSpaceOnUse" x1="7377.47" x2="5745.9" xlink:href="#b" y1="874.49" y2="-803.807"/><linearGradient id="d" gradientUnits="userSpaceOnUse" x1="7.382" x2="23.713" y1="24.735" y2="20.765"><stop offset=".21" stop-color="#e54033"/><stop offset=".84" stop-color="#feca1a"/></linearGradient><linearGradient id="e" gradientUnits="userSpaceOnUse" x1="20.249" x2="25.288" y1="23.634" y2="23.671"><stop offset="0" stop-color="#feca1a"/><stop offset=".4" stop-color="#feca1a"/><stop offset="1" stop-color="#afd803"/></linearGradient><linearGradient id="f" gradientUnits="userSpaceOnUse" x1="8.843" x2="19.174" y1="24.837" y2="10.85"><stop offset=".16" stop-color="#e54033"/><stop offset=".84" stop-color="#feca1a"/></linearGradient><linearGradient id="g" gradientUnits="userSpaceOnUse" x1="7.338" x2="6.88" y1="10.94" y2="19.974"><stop offset="0" stop-color="#feca1a"/><stop offset=".76" stop-color="#e54033"/></linearGradient><linearGradient id="h" gradientUnits="userSpaceOnUse" x1="12.392" x2="9.633" y1="8.594" y2="19.071"><stop offset=".16" stop-color="#feca1a"/><stop offset="1" stop-color="#e54033"/></linearGradient><linearGradient id="i" gradientUnits="userSpaceOnUse" x1="13.461" x2="23.677" xlink:href="#b" y1="3.578" y2="7.343"/><linearGradient id="j" gradientUnits="userSpaceOnUse" x1="7377.44" x2="5745.87" xlink:href="#b" y1="874.481" y2="-803.816"/><path clip-rule="evenodd" d="m14.801 8.923c1.015.52 2.126.699 3.189.696.617.567 1.13 1.233 1.613 1.917.2.286.381.585.54.895.37.71.641 1.463.916 2.224.08.223.161.447.245.67.026.096.053.192.082.288h.001c.425 1.455 1.044 3.009 1.874 4.292a9.516 9.516 0 0 0 1.121 1.408c.318.334.638.669.82 1.089.226.523.209 1.124.073 1.677-.641 2.609-3.153 3.294-5.554 3.357v-.003c-.9.018-1.793-.049-2.586-.13 0 0-3.823-.396-7.063-2.765l-.105-.077c-.378-.282-.739-.587-1.08-.912-.908-.867-1.717-1.85-2.335-2.93l.013-.012a10.228 10.228 0 0 1 -.21-.4c-.598-1.196-.963-2.498-.98-3.883-.027-2.323.767-4.702 2.278-6.427l-.002-.004a7.166 7.166 0 0 1 3.051-2 7.006 7.006 0 0 1 2.355-.36 5.84 5.84 0 0 0 1.744 1.39zm-1.862 15.2a6.964 6.964 0 0 0 1.548-.799 7.312 7.312 0 0 1 -1.548.8z" fill="url(#a)" fill-rule="evenodd"/><path clip-rule="evenodd" d="m22.736 7.031h.001l.033-.021c-4.262-7.27-9.835-1.546-9.835-1.546l.008.014h-.001c3.205 5.619 9.296 1.874 9.794 1.553z" fill="url(#c)" fill-rule="evenodd"/><path d="m17.453 19.554c-1.175 2.808-3.43 4.667-6.162 4.948-.059.008-.806.067-1.22.037 3.241 2.369 7.064 2.764 7.064 2.764.819.084 1.745.153 2.675.129a7.188 7.188 0 0 0 .459-2.944c-.123-2.58 1.373-3.904 2.992-4.583-.83-1.283-1.45-2.837-1.874-4.292-1.264.336-2.87 1.394-3.934 3.941z" fill="url(#d)"/><path d="m20.218 24.47a7.286 7.286 0 0 1 -.497 2.966c2.4-.063 4.913-.748 5.554-3.357.136-.553.153-1.155-.073-1.677-.22-.51-.645-.895-1.022-1.303a9.517 9.517 0 0 1 -.956-1.25c-1.618.68-3.129 2.041-3.006 4.62z" fill="url(#e)"/><path d="m21.304 15.325c-.369-.987-.683-1.975-1.16-2.894-.16-.31-.34-.61-.54-.895-.483-.684-.997-1.35-1.614-1.917-1.063.003-2.173-.175-3.188-.696-1.028 1.458-2.204 3.931-1.128 6.755 1.59 4.169-1.636 7.018-3.706 8.783l.104.077c.388.03.779.025 1.166-.016 2.731-.282 5.117-2.186 6.291-4.993 1.065-2.547 2.614-3.515 3.877-3.851a13.42 13.42 0 0 1 -.102-.353z" fill="url(#f)"/><path d="m7.764 9.773c-1.583 1.734-2.417 4.172-2.388 6.552.016 1.384.38 2.687.978 3.883.09.18.185.357.286.532 3.327-3.34 2.125-8.317 1.124-10.967z" fill="url(#g)"/><path d="m13.73 15.678c-1.076-2.825.074-5.282 1.1-6.74a5.84 5.84 0 0 1 -1.773-1.405 7.007 7.007 0 0 0 -2.355.36 7.166 7.166 0 0 0 -3.05 2c.979 2.591 2.155 7.46-1.1 10.726.619 1.08 1.427 2.063 2.335 2.93.359.341.738.66 1.137.953 2.07-1.763 5.296-4.655 3.707-8.824z" fill="url(#h)"/><path d="m17.745 5.927c2.253.889 3.83 1.13 4.975 1.095l.033-.021c-4.262-7.27-9.836-1.546-9.836-1.546l.008.014c1.203-.213 2.95-.28 4.82.458z" fill="url(#i)"/><path d="m17.773 5.877c-1.87-.737-3.627-.709-4.849-.408 3.205 5.619 9.296 1.873 9.794 1.553-1.144.035-2.692-.257-4.945-1.145z" fill="url(#j)"/></svg>