<svg fill="none" height="512" viewBox="0 0 512 512" width="512" xmlns="http://www.w3.org/2000/svg"><path d="m508.8 252.72c0 66.243-26.315 129.773-73.156 176.614s-110.371 73.156-176.614 73.156-129.773-26.315-176.6141-73.156c-46.8409-46.841-73.15589-110.371-73.15589-176.614s26.31499-129.773 73.15589-176.614c46.8411-46.841 110.3711-73.15599 176.6141-73.15599s129.773 26.31499 176.614 73.15599 73.156 110.371 73.156 176.614zm-337.752-78.827c.004-2.431-.471-4.838-1.397-7.086-.926-2.247-2.286-4.29-4.002-6.012s-3.754-3.089-5.998-4.023-4.65-1.417-7.081-1.421l-.78-.001c-4.909-.009-9.621 1.933-13.098 5.398s-5.436 8.17-5.444 13.079l-.276 157.72c-.004 2.431.471 4.838 1.397 7.086.926 2.247 2.286 4.29 4.002 6.012s3.754 3.089 5.998 4.023 4.65 1.417 7.081 1.421l.78.002c4.909.008 9.621-1.934 13.098-5.399s5.436-8.17 5.444-13.079zm213.932-.093c0-4.899-1.946-9.596-5.41-13.06s-8.161-5.41-13.06-5.41h-.78c-4.899 0-9.596 1.946-13.06 5.41s-5.41 8.161-5.41 13.06v157.86c0 4.899 1.946 9.596 5.41 13.06s8.161 5.41 13.06 5.41h.78c4.899 0 9.596-1.946 13.06-5.41s5.41-8.161 5.41-13.06zm-160.525 60.973c.008-4.872-1.919-9.548-5.358-12.999s-8.108-5.394-12.98-5.403l-1.02-.002c-2.413-.004-4.802.467-7.033 1.386-2.23.92-4.257 2.269-5.966 3.972s-3.066 3.726-3.993 5.953-1.406 4.615-1.41 7.027l-.17 96.96c-.008 4.872 1.919 9.548 5.358 12.999s8.108 5.394 12.98 5.403l1.02.002c2.413.004 4.802-.467 7.033-1.386 2.23-.92 4.257-2.269 5.966-3.972s3.066-3.726 3.993-5.953 1.406-4.615 1.41-7.027zm107.104.023c.009-2.407-.457-4.792-1.371-7.019-.913-2.227-2.256-4.253-3.952-5.961s-3.712-3.065-5.933-3.994-4.603-1.411-7.01-1.42l-1.1-.003c-4.861-.017-9.53 1.897-12.98 5.323-3.449 3.426-5.397 8.081-5.414 12.942l-.338 96.98c-.008 2.407.457 4.792 1.371 7.019.913 2.227 2.256 4.253 3.952 5.961s3.712 3.065 5.933 3.994 4.603 1.411 7.01 1.42l1.1.004c4.861.016 9.53-1.898 12.98-5.324 3.449-3.426 5.397-8.081 5.414-12.942zm-59.129 43.344c-12.37-12.14-32.34-3.3-32.36 13.77-.013 12.907 0 25.803.04 38.69.06 21.56 28.54 27.19 36.6 7.43.987-2.42 1.427-6.397 1.32-11.93-.2-10.053-.2-20.337 0-30.85.13-6.64-.85-12.45-5.6-17.11z" fill="#009ff9"/></svg>