<svg fill="none" height="256" viewBox="0 0 256 256" width="256" xmlns="http://www.w3.org/2000/svg" xmlns:xlink="http://www.w3.org/1999/xlink"><clipPath id="a"><path d="m0 0h256v256h-256z"/></clipPath><g clip-path="url(#a)"><path d="m33.792 34.56h188.928v191.232h-188.928z" fill="#fff"/><path d="m0 128v128h128 128v-128-127.99999353h-128-128zm97.28-88.1664c.6144 1.2288 1.024 12.0832 1.024 28.16 0 24.8832-.1024 26.3168-2.048 28.2624s-3.3792 2.048-28.2624 2.048c-16.0768 0-26.9312-.4096-28.16-1.024-1.8432-1.024-1.9456-2.4576-1.9456-28.9792 0-20.3776.3072-28.2624 1.2288-29.184s8.8064-1.2288 29.184-1.2288c26.5216 0 27.9552.1024 28.9792 1.9456zm119.603-.7168c.922.9216 1.229 8.8064 1.229 29.184 0 26.5216-.102 27.9552-1.946 28.9792-1.228.6144-12.083 1.024-27.955 1.024-21.811 0-26.317-.2048-28.262-1.6384-2.253-1.536-2.253-1.8432-2.253-28.16 0-16.384.41-27.4432 1.024-28.672 1.024-1.8432 2.458-1.9456 28.979-1.9456 20.378 0 28.263.3072 29.184 1.2288zm-59.699 88.8832v29.184h-29.184-29.184l-.3072-28.16c-.1024-15.462 0-28.672.3072-29.4912.3072-1.024 6.656-1.2288 29.389-1.024l28.979.3072zm-60.5184 31.949c1.4336 1.945 1.6384 6.451 1.6384 28.262 0 15.872-.4096 26.727-1.024 27.955-1.024 1.844-2.4576 1.946-28.9792 1.946-20.3776 0-28.2624-.307-29.184-1.229-.9216-.921-1.2288-8.806-1.2288-29.184 0-25.395.2048-27.955 1.8432-28.877 1.024-.614 12.288-1.126 28.5696-1.126 26.5216 0 26.8288 0 28.3648 2.253zm119.5004-1.229c1.844 1.024 1.946 2.458 1.946 28.979 0 20.378-.307 28.263-1.229 29.184-.921.922-8.806 1.229-29.184 1.229-26.521 0-27.955-.102-28.979-1.946-.614-1.228-1.024-12.288-1.024-28.672 0-22.835.205-26.828 1.638-28.16 1.332-1.433 5.325-1.638 28.16-1.638 16.384 0 27.444.41 28.672 1.024z" fill="#000"/></g></svg>