<svg viewBox="0 0 121 120.77" xmlns="http://www.w3.org/2000/svg"><path d="m43.62 33.88a58.21 58.21 0 0 1 4.05-4.22c-21.39-.66-15.17 14.77-22.14 30.48-8 18.09.95 25 14.32 27.14a28.86 28.86 0 0 1 -4.52-7.39c-8.67-10.91-5.18-30.78 8.29-46" fill="#f0e914"/><path d="m95.09 53.15a61.19 61.19 0 0 1 -10.81 18.09 51.62 51.62 0 0 1 -13.12 11.37 35.35 35.35 0 0 1 -19.36 5.5 76.28 76.28 0 0 1 -11.95-.83 24.27 24.27 0 0 0 8 6.26c19.34 9.35 20.56-8 41-16.83 11.48-4.95 11.53-14.63 6.22-23.56" fill="#ede80a"/><path d="m71.16 35.08a25.45 25.45 0 0 1 8 2.82 44.79 44.79 0 0 1 16 15.25c3.48-9.81 1.86-17.52-5.76-18.92-8.38-1.53-14.93-2-21.22-6.42-7.75-5.41-14.55-3.62-20.44 1.85l1.27.05c8.18.49 16 2.08 22.22 5.37" fill="#eee809"/><path d="m43.62 33.88c-13.47 15.23-17 35.1-8.29 46a33.14 33.14 0 0 1 1.86-29.62c7.3-12.11 22-17.39 34-15.19-6.23-3.29-14-4.88-22.21-5.37l-1.28-.05a58.21 58.21 0 0 0 -4.05 4.22" fill="#dfc31c"/><path d="m79.14 37.9a25.45 25.45 0 0 0 -8-2.82c8.2 4.33 13.66 11.6 13.59 23.19a29 29 0 0 1 -13.57 24.34 51.62 51.62 0 0 0 13.12-11.37 61 61 0 0 0 10.81-18.09 44.79 44.79 0 0 0 -16-15.25" fill="#e6cb23"/><path d="m71.16 35.08c-12-2.2-26.67 3.08-34 15.19a33.14 33.14 0 0 0 -1.86 29.62 28.86 28.86 0 0 0 4.52 7.39 76.28 76.28 0 0 0 11.95.83 35.35 35.35 0 0 0 19.36-5.5 29 29 0 0 0 13.62-24.35c.07-11.58-5.39-18.85-13.59-23.18m-1.35 42a20 20 0 0 1 -27.58-5.93c-6-9.22-3-21.1 6-27.47 10-7.13 22.89-4.32 27.58 5.92 4.57 10 3.31 21.53-6 27.48" fill="#cda727"/><path d="m0 0h121v120.77h-121z" fill="none"/></svg>