<svg fill="none" height="513" viewBox="0 0 513 513" width="513" xmlns="http://www.w3.org/2000/svg" xmlns:xlink="http://www.w3.org/1999/xlink"><clipPath id="a"><path d="m.5.5h512v512h-512z"/></clipPath><g clip-path="url(#a)"><path d="m257.831 208.884 72.192 155.443c.507 1.088 1.311 2.007 2.318 2.651s2.175.986 3.365.984l51.764.052c.822-.006 1.63-.216 2.351-.611s1.331-.962 1.774-1.65.706-1.474.763-2.287c.058-.812-.092-1.625-.434-2.364l-117.504-255.898c-.69-1.495-1.791-2.76-3.172-3.641s-2.982-1.341-4.61-1.325l-20.685.102c-1.697 0-3.359.486-4.792 1.402s-2.577 2.224-3.298 3.769l-117.862 256.768c-.274.608-.391 1.274-.34 1.939.05.664.265 1.306.626 1.865.362.56.858 1.021 1.442 1.34.585.319 1.241.487 1.907.488l53.709.154c1.029-.001 2.037-.29 2.906-.833.869-.544 1.566-1.32 2.009-2.239l72.448-156.109c.127-.3.339-.555.611-.733.271-.179.591-.274.921-.274.329 0 .654.095.937.274.282.178.509.433.654.733z" stroke="#8b8c8e" stroke-width="2"/><path d="m295.002 346.97c.131-.256.194-.541.184-.828s-.094-.567-.242-.813c-.149-.246-.358-.451-.608-.593-.249-.143-.531-.22-.818-.223l-74.65-.154c-.292-.005-.58.065-.837.204-.256.139-.472.343-.627.59-.155.248-.243.531-.255.822-.013.292.05.582.183.842l37.222 74.803c.136.283.348.522.612.691.264.17.569.262.883.267.313.006.622-.076.892-.237.269-.16.489-.392.634-.67z" stroke="#8b8c8e" stroke-width="2"/><path d="m.5 256.5c0-141.385 114.615-256 256-256s256 114.615 256 256-114.615 256-256 256-256-114.615-256-256z" fill="#17181d"/><g fill="#fff"><path d="m257.831 208.884c-.145-.3-.372-.555-.654-.733-.283-.179-.608-.274-.937-.274-.33 0-.65.095-.921.274-.272.178-.484.433-.611.733l-72.448 156.109c-.443.919-1.14 1.695-2.009 2.239-.869.543-1.877.832-2.906.833l-53.709-.154c-.666-.001-1.322-.169-1.907-.488-.584-.319-1.08-.78-1.442-1.34-.361-.559-.576-1.201-.626-1.865-.051-.665.066-1.331.34-1.939l117.862-256.768c.721-1.545 1.865-2.853 3.298-3.769s3.095-1.402 4.792-1.402l20.685-.102c1.628-.016 3.229.444 4.61 1.325s2.482 2.146 3.172 3.641l117.504 255.898c.342.739.492 1.552.434 2.364-.057.813-.32 1.599-.763 2.287s-1.053 1.255-1.774 1.65-1.529.605-2.351.611l-51.764-.052c-1.19.002-2.358-.34-3.365-.984s-1.811-1.563-2.318-2.651z"/><path d="m295.002 346.97-37.427 74.701c-.145.278-.365.51-.634.67-.27.161-.579.243-.892.237-.314-.005-.619-.097-.883-.267-.264-.169-.476-.408-.612-.691l-37.222-74.803c-.133-.26-.196-.55-.183-.842.012-.291.1-.574.255-.822.155-.247.371-.451.627-.59.257-.139.545-.209.837-.204l74.65.154c.287.003.569.08.818.223.25.142.459.347.608.593.148.246.232.526.242.813s-.053.572-.184.828z"/></g></g></svg>