<svg fill="none" height="32" viewBox="0 0 32 32" width="32" xmlns="http://www.w3.org/2000/svg" xmlns:xlink="http://www.w3.org/1999/xlink"><clipPath id="a"><path d="m0 0h32v32h-32z"/></clipPath><g clip-path="url(#a)"><path d="m7.125 7.25h18.875v19h-18.875z" fill="#fff"/><path d="m16 32c8.8366 0 16-7.1634 16-16 0-8.83657-7.1634-16-16-16-8.83657 0-16 7.16343-16 16 0 8.8366 7.16343 16 16 16z" fill="#100e21"/><g fill="#e6dafe"><path d="m12.2584 8.01747c1.115-.64709 2.4091-1.01747 3.7897-1.01747 4.1865 0 7.5794 3.403 7.5794 7.6001 0 4.197-3.3929 7.6-7.5794 7.6v-1.9c3.1392 0 5.6846-2.5522 5.6846-5.7s-2.5454-5.70007-5.6846-5.70007c-.6641 0-1.3026.11428-1.8948.32569-.7062.2492-1.3481.63591-1.8949 1.12578-1.1629 1.0441-1.8948 2.5608-1.8948 4.2486v7.6l-1.89485-1.9v-5.7c0-1.9267.7156-3.6866 1.89485-5.02635.5416-.61616 1.1809-1.14294 1.8948-1.55628z"/><path d="m16.048 16.4999c1.0464 0 1.8948-.8508 1.8948-1.9 0-1.0493-.8484-1.9-1.8948-1.9s-1.8949.8507-1.8949 1.9v11.4001l-1.8948-1.9v-9.5001c0-1.4068.7619-2.6348 1.8948-3.2913.5571-.324 1.205-.5088 1.8949-.5088 2.0928 0 3.7897 1.7015 3.7897 3.8001 0 2.0985-1.6969 3.8-3.7897 3.8z"/></g></g></svg>