<svg viewBox="0 0 120.56 120.56" xmlns="http://www.w3.org/2000/svg"><path d="m23.58 23.24a51.18 51.18 0 0 1 37.71-15.06c12.09-.02 23.89 4.82 33.11 12.48q-36.81 36.9-73.72 73.71a52.43 52.43 0 0 1 -12.45-37.37 51.32 51.32 0 0 1 15.35-33.76z" fill="#fff"/><path d="m50.81.75a60.3 60.3 0 0 1 30.56 116 60.3 60.3 0 0 1 -77.11-78.83c7.58-19.41 25.9-34.14 46.55-37.17m-27.23 22.49a51.32 51.32 0 0 0 -15.35 33.76 52.43 52.43 0 0 0 12.45 37.37q36.93-36.79 73.72-73.71c-9.22-7.7-21-12.5-33.11-12.48a51.18 51.18 0 0 0 -37.71 15.06z" fill="#21201d"/></svg>