<svg fill="none" height="226" width="196" xmlns="http://www.w3.org/2000/svg" xmlns:xlink="http://www.w3.org/1999/xlink"><linearGradient id="a"><stop offset="0" stop-color="#edf1f9"/><stop offset="1" stop-color="#a5acbc"/></linearGradient><linearGradient id="b" gradientUnits="userSpaceOnUse" x1="114.715" x2="289.574" xlink:href="#a" y1="-187.471" y2="-82.894"/><linearGradient id="c"><stop offset="0" stop-color="#222935"/><stop offset="1" stop-color="#edf1f9"/></linearGradient><linearGradient id="d" gradientUnits="userSpaceOnUse" x1="220.84" x2="-57.88" xlink:href="#c" y1="62.144" y2="181.769"/><linearGradient id="e" gradientUnits="userSpaceOnUse" x1="98.046" x2="234.844" xlink:href="#a" y1="-114.165" y2="214.033"/><linearGradient id="f" gradientUnits="userSpaceOnUse" x1="22.62" x2="176.483" xlink:href="#a" y1="-129.121" y2="212.629"/><linearGradient id="g" gradientUnits="userSpaceOnUse" x1="-61.396" x2="250.636" xlink:href="#c" y1="228.028" y2="-12.641"/><linearGradient id="h" gradientUnits="userSpaceOnUse" x1="63.007" x2="181.678" xlink:href="#a" y1="-16.939" y2="11.379"/><path d="m98 169.501-49-28.255-49 28.245 49 28.254z" fill="url(#b)"/><g clip-rule="evenodd" fill-rule="evenodd"><path d="m48.996 197.745 49 28.255v-56.5z" fill="#11fa98"/><path d="m147 141.254-49 28.245v56.499l98-56.5z" fill="url(#d)"/><path d="m98 113.001 49-28.245 48.992 28.25.008-.005v56.5z" fill="url(#e)"/></g><path d="m0 56.49v56.501l49 28.255 49-28.246-49-28.254z" fill="url(#f)"/><path d="m98 56.5v-56.5l-98 56.49 49 28.256z" fill="url(#g)"/><g clip-rule="evenodd" fill-rule="evenodd"><path d="m98 56.5 49-28.245-49-28.255z" fill="#11fa98"/><path d="m196 56.51-49 28.246-49-28.256 49-28.245z" fill="url(#h)"/></g></svg>