<svg height="128" viewBox="0 0 33.867 33.867" width="128" xmlns="http://www.w3.org/2000/svg" xmlns:xlink="http://www.w3.org/1999/xlink"><radialGradient id="a" cx="93.322" cy="157.913" gradientTransform="matrix(1.97293 -.00444 .00347 1.54305 -92.561 -86.561)" gradientUnits="userSpaceOnUse" r="9.226"><stop offset="0" stop-color="#fe6b36"/><stop offset="1" stop-color="#fe6b36"/></radialGradient><circle cx="16.933" cy="16.933" fill="#0e1118" r="16.933"/><g transform="translate(-84.25 -132.673)"><path d="m95.434 142.543-2.417 2.55s-2.631 2.992.454 6.32c3.124 2.96 5.815 1.233 5.815 1.233l4.41-3.815c.275-.059 1.473-1.249 3.297.637 2.159 2.026.432 3.61.432 3.61l-2.019 1.994s-.51.478-.003 1.383c.756.856 1.669.302 1.669.302l2.222-2.064s2.683-2.634-.336-6.846c-2.828-3.945-6.701-.997-6.701-.997l-4.208 3.581s-1.43 1.273-3.012-.912c-1.525-2.01.119-3.372.119-3.372l1.788-1.906s.758-.755-.07-1.586c-.728-.733-1.44-.112-1.44-.112z" fill="url(#a)"/><path d="m96.245 147.266s1.332-1.49 2.777-2.597c1.445-1.106 3.477-1.67 3.477-1.67s.742-.375 1.178.416c.48.8-.177 1.407-.177 1.407-1.504.78-2.215.874-3.213 1.653-.971.79-2.62 2.529-2.62 2.529s-.338.316-1.241-.293c-.903-.61-.18-1.445-.18-1.445zm9.511 5.155s-1.332 1.49-2.777 2.597c-1.445 1.106-3.477 1.67-3.477 1.67s-.742.375-1.178-.417c-.48-.798.177-1.406.177-1.406 1.504-.78 2.214-.874 3.213-1.654.971-.79 2.62-2.528 2.62-2.528s.338-.316 1.24.293c.904.61.182 1.445.182 1.445z" fill="#fe6b36"/></g></svg>