<svg height="1080" viewBox="0 0 1080 1080" width="1080" xmlns="http://www.w3.org/2000/svg"><path d="m254.70562 210.75747 800.72698-197.314497-711.05163 210.888757z" fill="#671857"/><path d="m344.38097 224.33173-36.98033 448.0298 281.903 183.8623-239.92933-324.22374 108.45717-241.60859 597.60112-276.948527z" fill="#a040ac"/><path d="m457.83148 290.3915 597.60112-276.948527-646.68626 417.008127z" fill="#69306e"/><path d="m254.70562 210.75747-190.802649 290.94608-17.214674 246.48289z" fill="#b02e9f"/><path d="m344.38097 224.33173-36.98033 448.0298-260.712343 75.82491z" fill="none"/><path d="m344.38097 224.33173-36.98033 448.0298-260.712344 75.82491z" fill="#a62d96"/><path d="m254.70562 210.75747 89.67535 13.57426-297.692673 523.85471z" fill="#ae3bbb"/><path d="m430.86874 167.44024-6.51395-85.709848 15.08493-73.9390253 35.31245 94.6236733-18.17048 58.96836z" fill="#8c279a"/><path d="m456.58169 161.3834 69.25355-17.14196-51.08307-41.8264z" fill="#9c3ea7"/><path d="m439.43972 7.7913667 88.45256 71.6534293 31.88407 56.568494-33.94111 8.22815-51.08307-41.8264z" fill="#b368b8"/><path d="m1055.4326 13.442973 3.0977 8.695348-649.78396 408.312779z" fill="#b167b6"/><path d="m307.40064 672.36153 281.903 183.8623-74.86818 113.03186-159.3616 47.11051-308.385564-268.17976z" fill="#531160"/><path d="m46.688297 748.18644 99.683953 112.88949 208.70161 155.29027z" fill="#6f1b7d"/><path d="m355.07386 1016.3662 159.3616-47.11051 74.86818-113.03186 25.6537 211.51807-175.06513 10.469z" fill="#280b1d"/><path d="m589.30364 856.22383 25.6537 211.51807 36.25375-88.98653z" fill="#813f87"/><path d="m457.83148 290.3915-49.08514 140.0596-2.40356 148.1423-56.96847-46.59331z" fill="#a159a6"/><path d="m349.37431 532.00009 253.7371 282.24713 48.09968 164.50815-61.90745-122.53154z" fill="#a85dae"/><path d="m349.37431 532.00009 56.96847 46.59331 196.76863 235.65382z" fill="#c27bc7"/><path d="m793.82645 487.36262-143.15489-208.95602-16.14366 10.16789 118.38865 165.77781z" fill="#d392d7"/><path d="m634.5279 288.57449-16.54265 10.35016 23.5539 44.76459 23.65901-12.25199z" fill="#772f80"/><path d="m641.53915 343.68924 106.46549 194.34179 49.85289 21.96906-44.94098-105.64779-87.71839-122.91505z" fill="#b368b8"/><path d="m617.98525 298.92465 23.5539 44.76459-110.69033 65.48473-45.20559-27.46134z" fill="#8e237c"/><path d="m530.84882 409.17397 217.15582 128.85706-106.46549-194.34179z" fill="#9f3589"/><path d="m752.91655 454.3523 40.9099 33.01032 34.93762 104.62151-28.42185 59.72703-42.01486-38.71959 39.53017-52.99148z" fill="#a65dab"/><path d="m485.64323 381.71263-68.33602 43.01046 40.56926 27.4824 72.97235-43.03152z" fill="#8f2f9c"/><path d="m417.30721 424.72309-8.56087 5.72801-1.00174 61.37365 44.56996 38.57474 9.81514-31.08129-4.25323-47.11271z" fill="#b440c0"/><path d="m457.87647 452.20549 221.16791 95.64314-216.91468-48.53043z" fill="#611153"/><path d="m462.1297 499.3182-9.81514 31.08129 150.49887 52.56554 76.23095-35.1164z" fill="#50105c"/><path d="m602.81343 582.96503 80.81136 26.60994-4.58041-61.72634z" fill="#8c279a"/><path d="m679.04438 547.84863 79.28298 65.14294-74.70257-3.4166z" fill="#3e1841"/><path d="m679.04438 547.84863 68.96026-9.8176 10.32272 74.96054z" fill="#4f2154"/><path d="m602.81343 582.96503 80.81136 26.60994 21.62643 49.39154z" fill="#561363"/><path d="m683.62479 609.57497 74.70257 3.4166-53.07614 45.97494z" fill="#591e45"/><path d="m705.25122 658.96651 95.091-7.25535-42.01486-38.71959z" fill="#712b59"/><path d="m748.00464 538.03103 49.85289 21.96906-39.53017 52.99148z" fill="#8b4690"/><path d="m530.84882 409.17397 217.15582 128.85706-68.96026 9.8176-165.90662-128.4388z" fill="#973fa1"/><path d="m513.13776 419.40983-55.26129 32.79566 221.16791 95.64314z" fill="#953aa0"/></svg>