<svg fill="none" height="42" viewBox="0 0 42 42" width="42" xmlns="http://www.w3.org/2000/svg"><rect fill="#fff" height="42" rx="21" width="42"/><g fill="#216c58"><circle cx="20.9997" cy="21" r="19.6" stroke="#216c58" stroke-width=".7"/><path d="m39.1994 21c0 10.0516-8.1484 18.2-18.2 18.2-10.0515 0-18.19996-8.1484-18.19996-18.2s8.14846-18.2 18.19996-18.2c10.0516 0 18.2 8.1484 18.2 18.2z"/><path d="m18.5494 29.75h2.1v2.1h-2.1z"/><path d="m22.0496 29.75h2.1v2.1h-2.1z"/></g><g fill="#fff"><rect height="1.75" rx=".7" width="14.7" x="14.3491" y="8.04996"/><path d="m20.9989 10.4999v23.8c0 .3866-.3134.7-.7.7h-.35c-.3866 0-.7-.3134-.7-.7v-23.8z"/><path d="m23.7994 10.4999v23.8c0 .3866-.3134.7-.7.7h-.35c-.3866 0-.7-.3134-.7-.7v-23.8z"/><path d="m19.506 16.4254.0035-.0013c.4865-.178 1.1006-.273 1.8521-.273 1.1059 0 1.938.2122 2.5297.6.4274.2802.7079.6325.8595 1.0591.152.4277.5438.8425 1.0936.8425h3.2333c.5737 0 1.0923-.4814 1.0046-1.109-.1352-.9672-.5005-1.8401-1.0937-2.6129-.7421-.9668-1.7736-1.7106-3.0766-2.2399-1.2995-.5307-2.8079-.791-4.5174-.791-1.6814 0-3.1953.2607-4.5358.7896-1.3383.5281-2.4086 1.2697-3.1949 2.2331l-.001.0013c-.7872.9741-1.1761 2.1156-1.1686 3.4084-.0074 1.5842.5834 2.8683 1.7739 3.8151 1.1566.92 2.7136 1.5812 4.6492 2.0005.0004.0001.0008.0002.0011.0003l2.4549.5488.0029.0007c.8114.1741 1.4873.3658 2.0312.5734l.0014.0005c.5439.2049.9253.4425 1.1705.6991l.003.0031c.2337.2385.3518.5284.3518.893 0 .3957-.1321.7421-.4077 1.0529-.2812.3171-.6912.5797-1.2524.7747l-.0012.0004c-.5489.1931-1.2094.2941-1.9884.2941-.7907 0-1.4892-.1067-2.1-.3142-.5969-.2117-1.0598-.5168-1.4031-.9081-.2184-.2586-.3756-.5608-.4704-.9115-.1258-.4654-.5311-.8975-1.0936-.8975h-3.2501c-.5805 0-1.0878.486-1.0162 1.1064.1373 1.1897.5344 2.2255 1.199 3.0956l.0017.0022c.8028 1.0339 1.9109 1.8049 3.3064 2.3209l.0005.0002c1.3991.5144 3.0283.767 4.8808.767 1.8659 0 3.4784-.2489 4.8285-.7582l.0008-.0003c1.3538-.5147 2.4116-1.245 3.1499-2.2031.7483-.968 1.1228-2.1099 1.1306-3.4096v-.0052c-.0078-.8837-.1903-1.6814-.5569-2.3843-.3546-.6941-.854-1.2946-1.4929-1.8011-.6328-.5015-1.3761-.9198-2.2258-1.2575-.8441-.3356-1.7676-.6026-2.7691-.8024l-2.0252-.4312-.0045-.0009c-.4799-.0956-.9294-.21-1.3487-.3428-.4135-.1374-.7718-.2945-1.0775-.4697-.2933-.1744-.5139-.3739-.6718-.5946-.1352-.1986-.2026-.4355-.1907-.7271l.0003-.0071v-.0072c0-.3482.1099-.6554.3378-.9338.2366-.2801.5891-.5142 1.0817-.6884z" stroke="#216c58" stroke-width=".7"/><path d="m19.2496 15.05h1.75v2.45h-1.75z"/><path d="m19.2496 23.8h1.75v2.45h-1.75z"/><path d="m19.2496 31.15h1.75v2.45h-1.75z"/><path d="m22.0502 15.05h1.75v2.45h-1.75z"/><path d="m22.0502 23.8h1.75v2.45h-1.75z"/><path d="m22.0502 31.15h1.75v2.45h-1.75z"/><path clip-rule="evenodd" d="m38.6133 22.05c-.2781 0-.5074.2177-.5321.4948-.781 8.7479-8.1304 15.6052-17.0814 15.6052s-16.30042-6.8573-17.08137-15.6052c-.02473-.2771-.25398-.4948-.53214-.4948-.3022 0-.5429.2553-.51657.5563.81319 9.2993 8.61978 16.5937 18.13008 16.5937s17.3169-7.2944 18.1301-16.5937c.0263-.301-.2144-.5563-.5166-.5563zm-35.22701-2.1c.27816 0 .50741-.2177.53214-.4947.78095-8.7479 8.13037-15.60527 17.08137-15.60527s16.3004 6.85737 17.0814 15.60527c.0247.277.254.4947.5321.4947.3022 0 .5429-.2552.5166-.5563-.8132-9.2992-8.6198-16.59367-18.1301-16.59367s-17.31689 7.29447-18.13008 16.59367c-.02633.3011.21437.5563.51657.5563z" fill-rule="evenodd"/></g></svg>