<svg viewBox="0 0 196.51 196.8" xmlns="http://www.w3.org/2000/svg"><path d="m98.42 52.31a46.1 46.1 0 1 0 45.49 53.54h-15.36v-18.15h14.71a46.14 46.14 0 0 0 -44.84-35.39z" fill="none"/><path d="m98.42 174.28a75.87 75.87 0 1 1 75.11-86.58h22.68a98.4 98.4 0 1 0 .3 18.15h-22.59a75.87 75.87 0 0 1 -75.5 68.43z" fill="#007aec"/><path d="m98.42 22.55a75.87 75.87 0 1 0 75.5 83.3h-11.68a64.22 64.22 0 1 1 -.46-18.15h11.75a75.88 75.88 0 0 0 -75.11-65.15z" fill="#003286"/><path d="m98.42 144.51a46.1 46.1 0 1 1 44.84-56.81h18.52a64.28 64.28 0 1 0 .46 18.15h-18.33a46.09 46.09 0 0 1 -45.49 38.66z" fill="#63c2ff"/></svg>