<svg fill="none" height="261" viewBox="0 0 262 261" width="262" xmlns="http://www.w3.org/2000/svg"><ellipse cx="132.88" cy="126.235" fill="#fff" rx="97.445" ry="95.2304"/><path clip-rule="evenodd" d="m130.556 261c72.103 0 130.555-58.427 130.555-130.5 0-72.0732-58.452-130.5-130.555-130.5-72.1039 0-130.556 58.4268-130.556 130.5 0 72.073 58.4521 130.5 130.556 130.5zm-.056-45.931c-31.2419-53.919-80-138.069-80-138.069h69.46l13.939 24.047h-41.2523l52.0353 89.545s-8.643 14.919-14.182 24.477zm20.63-35.604 59.37-102.465h-28.333l-31.08 53.741-10.925-18.817h-28.243z" fill="#0085ff" fill-rule="evenodd"/></svg>