<svg data-name="Layer 1" xmlns="http://www.w3.org/2000/svg" viewBox="0 0 277.73 277.73"><circle cx="138.865" cy="138.865" r="138.865" style="fill:#fff;stroke-width:0"/><path data-name="fullLogo" d="M209.107 185.794a40.962 40.962 0 0 1-35.532 20.566h-23.731v-80.03l-34.252 59.483a40.96 40.96 0 0 1-35.532 20.565H56.494V88.273H103.9V168.1l45.943-79.791v-.037h47.388v80.158l49.786-86.507c2.012-3.513 1.976-7.868-.202-11.29-22.962-36.263-63.672-60.177-109.926-59.482C66.356 12.25 10.789 69.025 11.155 139.56c.366 70.222 57.415 127.034 127.711 127.034s127.711-57.178 127.711-127.711c0-11.363-1.501-22.377-4.3-32.88-.842-3.183-5.087-3.769-6.733-.933l-46.456 80.707.019.018z" style="stroke-width:0"/></svg>