<svg fill="none" height="420" width="501" xmlns="http://www.w3.org/2000/svg"><path d="m151.22 123.829c-9.051 1.383-13.582 2.065-22.633 3.447-3.718-46.724 22.446-82.248 68.143-92.598 1.373 9.051 2.065 13.582 3.447 22.633-33.17 8.566-50.647 32.162-48.947 66.518z" fill="#19fb9b"/><path d="m431.501 246.713s-2.924-28.873-27.958-32.348c-25.044-3.475-30.405 5.483-30.405 5.483s18.766 18.028 23.885 41.671c5.119 23.633-3.167 29.237-11.938 21.933-8.781-7.314-16.814-21.933-30.704-62.137-13.891-40.214-40.7-85.78-103.808-111.122-36.01-14.46-78.195-17.487-117.745-8.463-2.176-.15-4.381-.299-6.623-.449-62.352-4.017-91.655-.812-98.997.224-1.093.159-2.186.215-3.288.309-5.128.429-10.098 5.175-11.564 11.265l-11.07 45.94c-2.755 11.461-.962 22.558 4.214 30.713l-.028-.018 7.1 11.685a146.237 146.237 0 0 0 -3.924 12.564 144.368 144.368 0 0 0 -4.26 25.1c24.652-12.069 72.927-29.724 146.114-2.485 105.518 39.261 111.365 89.945 187.878 109.655 43.885 11.303 66.257-3.484 78.288-21.55 5.754-11.2 9.79-23.679 11.546-37.579 0 0 22.297-2.008 38.924-12.059 16.637-10.051 27.416-19.196 33.086-20.84 0 0-15.908-29.602-68.722-7.492zm-183.463-203.336c.214-23.529-18.687-42.776-42.216-42.99-23.529-.213-42.776 18.688-42.99 42.217s18.687 42.776 42.216 42.99c23.529.213 42.777-18.688 42.99-42.217z" fill="#19fb9b"/><path d="m224.855 43.167c.097-10.725-8.518-19.498-19.243-19.595-10.725-.098-19.499 8.518-19.596 19.243s8.518 19.498 19.243 19.596c10.725.097 19.499-8.519 19.596-19.244z" fill="#fff"/><path d="m416.676 324.682c-24.193 47.135-78.736 71.665-121.256 84.266-52.638 15.59-173.39 23.418-243.682-48.742-37.309-38.299-50.508-81.557-47.34-121.145 24.65-12.069 72.916-29.723 146.113-2.485 105.517 39.261 111.365 89.946 187.878 109.656 43.884 11.302 66.256-3.484 78.287-21.55z" fill="#9945ff"/><path d="m18.24 160.045-1.298 5.409c-1.438 5.997-1.383 11.872-.065 17.084a29.203 29.203 0 0 0 2.008 5.549c.476.99 1 1.952 1.588 2.858.187.309.383.589.58.869a23.12 23.12 0 0 0 3.156 3.699 21.936 21.936 0 0 0 10.285 5.596l15.805-3.298 3.503-.728 3.774-.785-33.796-59.241zm21.765-46.81 44.921 78.708c3.102-.205 6.222-.299 9.341-.28 3.14.009 6.297.14 9.463.383l-45.65-79.997c-8.52.308-14.432.803-18.075 1.186zm219.891 19.048a9.407 9.407 0 0 1 -1.934-.365c-.374-.121-35.674-10.826-114.644-17.113-2.746-.214-5.548-.429-8.397-.635a73.528 73.528 0 0 0 -1.355-.093 850.167 850.167 0 0 0 -8.407-.57 927.468 927.468 0 0 0 -15.833-.878c-1.541-.075-3.045-.14-4.53-.196a946.72 946.72 0 0 0 -10.089-.374 730.32 730.32 0 0 0 -8.304-.196 630.425 630.425 0 0 0 -9.089-.093h-.523l47.574 83.378c14.6 3.316 28.911 8.996 42.605 17.029l35.935 21.083c21.625 3.391 43.773-10.966 48.929-32.703l14.273-60.213c.962-4.082-1.83-7.706-6.211-8.061z" fill="#260246"/><path d="m35.474 113.827c-.43.084-.85.102-1.26.074-2.635-.214-5.381 2.168-6.138 5.306l-4.297 17.851 33.796 59.241 8.66-1.812a134.213 134.213 0 0 1 18.691-2.541l-44.921-78.708c-3.027.327-4.475.57-4.53.589zm41.316-2.056a479.556 479.556 0 0 0 -18.71.28l45.65 79.997c4.054.29 8.136.776 12.218 1.448 2.812.467 5.614 1.018 8.417 1.654z" fill="#fff"/></svg>