<svg fill="none" height="30" viewBox="0 0 30 30" width="30" xmlns="http://www.w3.org/2000/svg"><circle cx="15" cy="15" fill="#6295ec" r="15"/><path d="m16.8863 24.8437c-1.4119 0-2.4425-.3384-3.0917-1.0151-.6014-.5729-.9504-1.3594-.9707-2.1875-.0073-.2516.0513-.5008.17-.723.1108-.192.2708-.3514.4637-.4617.2242-.1113.4714-.1692.7219-.1692.2506 0 .4977.0579.7219.1692.1926.1099.3519.2694.4611.4617.1222.2212.183.4707.1761.723.0126.3013-.0742.5984-.2473.8459-.1442.2021-.3504.3522-.5876.4279.232.2938.5602.4974.9275.5753.4109.1187.8365.1798 1.2644.1814.5666.0049 1.1214-.1601 1.5923-.4737.4884-.3433.8527-.8341 1.0387-1.3996.2359-.6731.351-1.3821.3401-2.0948.0191-.7431-.1069-1.4827-.371-2.178-.1986-.5561-.5756-1.0317-1.0728-1.3535-.4621-.291-.9986-.4437-1.5455-.4399-.4766.0402-.9361.1954-1.3388.4522l-.9927.4952v-.4952l4.4613-5.9548h-6.1833v6.1794c-.0175.4459.1011.8867.3401 1.2643.1156.1645.272.2966.454.3833.182.0868.3834.1253.5847.1119.3721-.0075.7319-.1336 1.0264-.3599.3339-.2434.6244-.5408.8595-.8798.0212-.0594.0602-.111.1118-.1476.0414-.0356.0943-.0552.1491-.0553.1074.0097.209.0527.2906.1229.1034.1149.1596.2642.1576.4184-.0119.1036-.0305.2063-.0556.3076-.2197.529-.5878.9838-1.0605 1.31-.439.2956-.9575.4523-1.4875.4496-1.3388 0-2.2662-.2625-2.7824-.7875-.2652-.2902-.4697-.6301-.6014-.9998-.1316-.3698-.1878-.7619-.1653-1.1536v-6.1639h-3.145v-1.14811h3.1597v-2.61783l-.72344-.72027v-.58704h2.09914l.7885.40611v3.51903l8.168-.02472.8132.81209-5.0085 5.00764c.3026-.1211.6213-.1978.946-.2276.6428.028 1.2699.2061 1.8306.5199.6494.3071 1.1966.793 1.5769 1.4001.3407.5139.5819 1.0867.7111 1.6888.1062.475.1632.9595.17 1.446.0033.9285-.2082 1.8452-.6183 2.6793-.3889.8076-1.0434 1.4588-1.8551 1.8457-.8309.4074-1.7452.6179-2.6715.6151z" fill="#fff"/></svg>